# xmcd
# 
# Track frame offsets:
#     182
#     15052
#     29047
#     46700
#     60025
#     71470
#     88697
#     100900
#     117397
#     132562
#     150495
#     162162
# 
# Disc length: 2393
# 
# Revision: 8
# Processed by: cddbd v1.5.2PL0 Copyright (c) Steve Scherf et al.
# Submitted via: BonkEnc v1.0.6
# 
DISCID=8a09570c
DTITLE=Amado Batista - Vitamina e Cura
DYEAR=0
DGENRE=Country
TTITLE0=Vem morena
TTITLE1=O fruto do nosso amor(Amor perfeito)
TTITLE2=Carta sobre a mesa
TTITLE3=Casamento forçado
TTITLE4=Ausência
TTITLE5=O Julgamento
TTITLE6=Vitamina e cura
TTITLE7=Ah! se eu pudesse
TTITLE8=O Acidente
TTITLE9=Nossa casinha
TTITLE10=Acorde amor (8º andar)
TTITLE11=Desisto (Obrigado a desistir)
EXTD=
EXTT0=
EXTT1=
EXTT2=
EXTT3=
EXTT4=
EXTT5=
EXTT6=
EXTT7=
EXTT8=
EXTT9=
EXTT10=
EXTT11=
PLAYORDER=
